<?xml version="1.0" encoding="utf-8"?>
<!-- Generator: Adobe Illustrator 21.0.2, SVG Export Plug-In . SVG Version: 6.00 Build 0)  -->
<svg version="1.1" id="Layer_1" xmlns="http://www.w3.org/2000/svg" xmlns:xlink="http://www.w3.org/1999/xlink" x="0px" y="0px"
	 viewBox="0 0 595.3 841.9" style="enable-background:new 0 0 595.3 841.9;" xml:space="preserve">
<style type="text/css">
	.st0{stroke:#000000;stroke-width:1.5;stroke-miterlimit:10;}
	.st1{fill:#C81618;stroke:#C81618;stroke-width:1.5;stroke-miterlimit:10;}
	.st2{fill:#9D9591;}
	.st3{fill:#C9191A;}
	.st4{fill:#C81618;}
</style>
<g id="OxTS_1_">
	<path class="st0" d="M281.3,281.7c-2.1,0-3.9-0.4-5.4-1.1c-1.5-0.8-2.7-1.8-3.5-3.1c-0.8-1.3-1.4-2.8-1.8-4.3
		c-0.4-1.6-0.5-3.3-0.4-5.1c0.2-3.3,0.9-6.3,2.2-9c1.3-2.7,3.2-5,5.6-6.7c2.4-1.7,5.2-2.6,8.3-2.6c3.7,0,6.5,1.3,8.4,3.9
		c1.8,2.6,2.7,5.8,2.5,9.5c-0.3,5.2-1.9,9.6-4.8,13.1C289.3,279.9,285.7,281.7,281.3,281.7z M281.5,276c2.6,0,4.9-1.2,6.6-3.7
		c1.8-2.5,2.8-5.5,2.9-9.1c0.1-2.1-0.3-3.9-1.2-5.5c-0.9-1.5-2.4-2.3-4.4-2.3c-2.6,0-4.9,1.3-6.6,3.8c-1.8,2.5-2.7,5.4-2.9,8.7
		c-0.1,2.2,0.3,4.1,1.2,5.6C278.1,275.2,279.5,276,281.5,276z"/>
	<path class="st1" d="M293.1,281.2l13.4-16.2l-5.5-14.7h6.7l3.4,9.1l7.6-9.1h7.3l-12.7,15.2l5.9,15.7h-6.7l-3.8-10.1l-8.4,10.1
		H293.1z"/>
	<path class="st0" d="M342.7,256l-9.8,25.2h-6l9.8-25.2h-10.5l4.5-5.7h22.7L350,256H342.7z"/>
	<path class="st0" d="M368.9,258.7c-0.2-1-0.6-1.8-1.4-2.5c-0.7-0.6-1.7-0.9-3-0.9c-1.4,0-2.4,0.3-3.2,0.9c-0.8,0.6-1.2,1.3-1.3,2.2
		c0,0.8,0.4,1.5,1.2,2.1c0.9,0.6,1.9,1.2,3.2,1.7c1.3,0.5,2.5,1.1,3.8,1.8c1.3,0.7,2.3,1.7,3.1,3c0.8,1.3,1.2,3,1.1,4.8
		c-0.2,2.9-1.4,5.3-3.6,7.1c-2.3,1.8-5.2,2.7-8.8,2.7c-2.7,0-4.9-0.8-6.6-2.3c-1.7-1.5-2.8-3.6-3.3-6.2l5.6-2c0.4,1.6,1,2.7,1.9,3.6
		c0.8,0.8,2,1.2,3.6,1.2c1.4,0,2.6-0.3,3.5-0.9c0.9-0.6,1.4-1.5,1.5-2.6c0.1-1-0.3-1.9-1.2-2.6c-0.8-0.7-1.9-1.3-3.1-1.9
		c-1.2-0.5-2.5-1.1-3.7-1.8c-1.2-0.7-2.3-1.6-3.1-2.9c-0.8-1.3-1.2-2.8-1.1-4.7c0.1-2.6,1.2-4.7,3.3-6.4c2-1.7,4.7-2.5,8-2.5
		c2.9,0,5.1,0.7,6.6,2.1c1.5,1.4,2.4,3.1,2.6,5.1L368.9,258.7z"/>
</g>
<g>
	<path class="st2" d="M262.9,298.5l1.8-12.7h1.3l-1.8,12.7H262.9z"/>
	<path class="st2" d="M267.5,298.5l1.3-9.3h1.3l-0.1,1c0.7-0.8,1.5-1.2,2.5-1.2c0.8,0,1.4,0.2,1.9,0.7c0.5,0.5,0.7,1.2,0.7,2.1
		c0,0.5,0,1-0.1,1.5l-0.7,5.1H273l0.8-5.6c0-0.3,0.1-0.7,0.1-0.9c0-0.6-0.2-1-0.5-1.3c-0.3-0.3-0.7-0.5-1.2-0.5
		c-0.7,0-1.3,0.3-1.8,0.8c-0.5,0.5-0.8,1.2-0.9,2l-0.8,5.6H267.5z"/>
	<path class="st2" d="M280.6,298.7c-1,0-1.8-0.4-2.4-1.1c-0.6-0.7-0.9-1.7-1-2.8c-0.1-1.7,0.3-3.1,1.2-4.2c0.8-1.1,1.9-1.7,3.2-1.7
		c1,0,1.7,0.3,2.3,0.8c0.6,0.6,0.9,1.4,0.9,2.6c0,0.5-0.1,1.2-0.3,1.9h-6.1l0,0.3c0,0.9,0.2,1.6,0.6,2.1c0.4,0.5,0.9,0.8,1.6,0.8
		c0.7,0,1.4-0.2,2.1-0.7l0.6,0.9C282.6,298.4,281.7,298.7,280.6,298.7z M278.7,293.2h4.9c0.1-0.3,0.1-0.6,0.1-0.9
		c0-0.8-0.2-1.3-0.6-1.7c-0.4-0.3-0.8-0.5-1.4-0.5c-0.8,0-1.5,0.3-2,0.9C279.1,291.6,278.8,292.4,278.7,293.2z"/>
	<path class="st2" d="M286.5,298.5l1.3-9.3h1.3l-0.2,1.3c0.4-0.5,0.8-0.9,1.3-1.1c0.5-0.3,0.9-0.4,1.3-0.4c0.5,0,0.8,0.1,1.1,0.4
		l-0.4,1.2c-0.4-0.2-0.7-0.3-1.1-0.3c-0.5,0-1,0.2-1.6,0.7c-0.5,0.5-0.9,1.2-1,2.2l-0.7,5.2H286.5z"/>
	<path class="st2" d="M295.8,298.7c-0.5,0-0.9-0.1-1.1-0.4c-0.3-0.3-0.4-0.7-0.4-1.2c0-0.2,0-0.4,0-0.6l0.8-6.1h-1.5l0.2-1.1h1.5
		l0.5-3.3l1.3-0.5l-0.5,3.8h2.2l-0.2,1.1h-2.2l-0.8,5.7c0,0.3-0.1,0.5,0,0.7c0,0.5,0.3,0.8,0.8,0.8c0.4,0,0.9-0.2,1.4-0.5l-0.3,1.3
		C296.9,298.6,296.4,298.7,295.8,298.7z"/>
	<path class="st2" d="M299.6,298.5l1.3-9.3h1.3l-1.3,9.3H299.6z M301.8,287.3c-0.2,0-0.4-0.1-0.5-0.2s-0.2-0.3-0.2-0.5
		c0-0.3,0.1-0.5,0.3-0.7c0.2-0.2,0.4-0.3,0.6-0.3c0.2,0,0.4,0.1,0.5,0.2s0.2,0.3,0.2,0.5c0,0.3-0.1,0.5-0.3,0.7
		C302.2,287.2,302,287.3,301.8,287.3z"/>
	<path class="st2" d="M309.1,298.5l0.1-0.8c-0.8,0.7-1.6,1-2.6,1c-0.8,0-1.5-0.2-2-0.7c-0.5-0.5-0.8-1.1-0.8-1.9
		c0-1.2,0.3-2.1,1-2.6s1.6-0.9,2.6-0.9c0.9,0,1.7,0.2,2.4,0.7l0.1-0.8c0-0.3,0.1-0.6,0.1-0.8c0-1-0.6-1.5-1.6-1.5
		c-0.9,0-1.9,0.3-2.9,1l-0.2-1.1c1.1-0.7,2.2-1,3.1-1c0.7,0,1.3,0.2,1.8,0.6s0.8,1,0.8,1.9c0,0.2,0,0.5-0.1,0.9l-0.9,6.2H309.1z
		 M306.7,297.6c0.5,0,1-0.1,1.5-0.4c0.5-0.3,0.9-0.6,1.2-1l0.2-1.8c-0.7-0.5-1.4-0.8-2.2-0.8c-0.7,0-1.3,0.2-1.8,0.6
		c-0.5,0.4-0.7,1-0.7,1.7c0,0.5,0.2,0.9,0.5,1.2C305.8,297.4,306.2,297.6,306.7,297.6z"/>
	<path class="st2" d="M313.3,298.5L315,286l1.3-0.5l-1.8,13.1H313.3z"/>
	<path class="st3" d="M323.5,292.9l-0.3,3.6h-1.3l0.3-3.6h-3.6l0.1-1.2h3.6l0.3-3.7h1.3l-0.3,3.7h3.6l-0.1,1.2H323.5z"/>
	<path class="st2" d="M334.5,298.7c-1.4,0-2.4-0.5-3.2-1.5c-0.8-1-1.2-2.2-1.2-3.5c0-0.8,0-1.6,0.2-2.4c0.1-0.8,0.4-1.5,0.7-2.2
		c0.3-0.7,0.7-1.3,1.2-1.8c0.5-0.5,1-0.9,1.7-1.2c0.7-0.3,1.4-0.5,2.2-0.5c0.9,0,1.7,0.2,2.3,0.6c0.6,0.4,1,0.9,1.3,1.4l-1.1,0.6
		c-0.5-1-1.4-1.5-2.6-1.5c-1,0-1.8,0.4-2.6,1.1c-0.7,0.7-1.2,1.6-1.5,2.6c-0.3,1-0.4,2.1-0.4,3.1c0,1.1,0.3,2.1,0.9,2.9
		s1.3,1.2,2.3,1.2c0.9,0,1.6-0.3,2.2-0.9c0.6-0.6,0.9-1.3,1.1-2.3l0.1-0.8h-2.2l0.2-1.1h3.5l-0.2,1.6c-0.2,1.5-0.7,2.7-1.6,3.4
		C336.7,298.3,335.7,298.7,334.5,298.7z"/>
	<path class="st2" d="M341.8,298.5l1.8-12.7h1.2l4.4,9.8l0.3,0.7c0.1-0.4,0.1-0.6,0.1-0.7l1.4-9.8h1.3l-1.8,12.7h-1.3l-4.1-9
		l-0.6-1.3c-0.1,0.7-0.2,1.2-0.2,1.3l-1.2,9H341.8z"/>
	<path class="st2" d="M361,288c-0.5-0.9-1.2-1.3-2.3-1.3c-0.8,0-1.4,0.2-1.8,0.6s-0.6,0.9-0.6,1.5c0,0.5,0.2,0.9,0.6,1.2
		c0.4,0.3,0.8,0.6,1.3,0.9s1,0.5,1.6,0.8c0.5,0.3,1,0.7,1.4,1.2c0.4,0.5,0.6,1.1,0.6,1.9c0,1.3-0.3,2.2-1.1,2.9
		c-0.8,0.7-1.8,1-3.1,1c-0.9,0-1.8-0.2-2.4-0.7c-0.7-0.5-1.1-1.1-1.4-1.8l1.1-0.5c0.5,1.3,1.4,1.9,2.7,1.9c0.9,0,1.6-0.2,2.1-0.7
		c0.5-0.5,0.7-1.1,0.7-2c0-0.6-0.2-1-0.6-1.4c-0.4-0.4-0.8-0.7-1.3-1c-0.5-0.3-1-0.5-1.6-0.8c-0.5-0.3-1-0.6-1.3-1.1
		c-0.4-0.5-0.6-1-0.6-1.6c0-1,0.3-1.7,1-2.4c0.7-0.6,1.6-0.9,2.8-0.9c0.8,0,1.5,0.2,2.1,0.6s1,0.8,1.2,1.4L361,288z"/>
	<path class="st2" d="M371.4,288c-0.5-0.9-1.2-1.3-2.3-1.3c-0.8,0-1.4,0.2-1.8,0.6c-0.4,0.4-0.6,0.9-0.6,1.5c0,0.5,0.2,0.9,0.6,1.2
		c0.4,0.3,0.8,0.6,1.3,0.9c0.5,0.2,1,0.5,1.6,0.8c0.5,0.3,1,0.7,1.4,1.2c0.4,0.5,0.6,1.1,0.6,1.9c0,1.3-0.3,2.2-1.1,2.9
		c-0.8,0.7-1.8,1-3.1,1c-0.9,0-1.8-0.2-2.4-0.7c-0.7-0.5-1.1-1.1-1.4-1.8l1.1-0.5c0.5,1.3,1.4,1.9,2.7,1.9c0.9,0,1.6-0.2,2.1-0.7
		c0.5-0.5,0.7-1.1,0.7-2c0-0.6-0.2-1-0.6-1.4c-0.4-0.4-0.8-0.7-1.3-1s-1-0.5-1.6-0.8c-0.5-0.3-1-0.6-1.3-1.1c-0.4-0.5-0.6-1-0.6-1.6
		c0-1,0.3-1.7,1-2.4c0.7-0.6,1.6-0.9,2.8-0.9c0.8,0,1.5,0.2,2.1,0.6s1,0.8,1.2,1.4L371.4,288z"/>
</g>
<g id="Wheel_1_">
	<path class="st2" d="M254.8,263.4c-0.1,0.2-0.1,0.3-0.2,0.5c0,0.1,0,0.1-0.1,0.1c-0.2,0.2-0.5,0.1-0.5-0.2
		c-0.1-2.8-0.5-8.5-2.6-11.6c-0.2-0.3,0.1-0.6,0.4-0.4c1.8,1.1,2.7,1.1,3.2,1.5c-0.7-4.5-2.6-7.8-6-10.4c-8.6-6.6-22.5-2.6-31.2,8.9
		c-8.7,11.5-8.7,26.2-0.2,32.7c6,4.6,14.7,4,22.3-0.7c-9.1,6.3-19.8,7.4-27.1,1.8c-9.8-7.5-9.7-24.3,0.2-37.5
		c9.9-13.2,25.9-17.8,35.7-10.3C255.9,243.2,257.9,253.3,254.8,263.4z"/>
	<g>
		<path class="st4" d="M256.6,281.3c-12.6,16.5-32.9,22.3-45.3,12.8c-5.4-4.1-8.4-10.1-9.1-17.3c-0.9,0.8-2.4,1.6-4.2,2.2
			c-0.3,0.1-0.5-0.3-0.3-0.5c2.5-2.6,4.1-7.9,4.7-10.6c0,0,0,0,0,0c0.1-0.3,0.5-0.2,0.5,0.1c0,0.3,0,0.6,0,0.9c0,0,0,0,0,0
			c0,0.1,0,0.3,0,0.4c0,0.1,0,0.2,0,0.4c0,7.4,2.7,14,8.1,18.1c10.9,8.3,28.6,3.3,39.5-11.2c11-14.4,11-32.8,0.2-41.1
			c-7.6-5.8-18.6-5.1-28.3,0.9c11.5-7.9,25.1-9.3,34.3-2.3C269.3,243.7,269.2,264.8,256.6,281.3z"/>
	</g>
</g>
</svg>
