<?xml version="1.0" encoding="utf-8"?>
<!-- Generator: Adobe Illustrator 21.1.0, SVG Export Plug-In . SVG Version: 6.00 Build 0)  -->
<svg version="1.1" id="Layer_1"
	 xmlns="http://www.w3.org/2000/svg" xmlns:xlink="http://www.w3.org/1999/xlink" xmlns:a="http://ns.adobe.com/AdobeSVGViewerExtensions/3.0/"
	 x="0px" y="0px" viewBox="0 0 595.28 841.89" enable-background="new 0 0 595.28 841.89" xml:space="preserve">
<g id="OxTS_1_">
	<path fill="#FFFFFF" stroke="#FFFFFF" stroke-width="1.5" stroke-miterlimit="10" d="M281.251,281.718
		c-2.091,0-3.903-0.382-5.438-1.148c-1.536-0.765-2.717-1.803-3.547-3.113c-0.83-1.31-1.423-2.753-1.782-4.329
		c-0.359-1.574-0.491-3.275-0.396-5.101c0.171-3.268,0.903-6.271,2.195-9.009c1.291-2.738,3.153-4.968,5.584-6.691
		c2.431-1.722,5.207-2.583,8.328-2.583c3.738,0,6.526,1.311,8.362,3.931c1.835,2.621,2.655,5.8,2.459,9.539
		c-0.271,5.183-1.863,9.562-4.773,13.139C289.331,279.93,285.667,281.718,281.251,281.718z M281.508,275.977
		c2.65,0,4.863-1.23,6.641-3.688c1.777-2.458,2.76-5.483,2.949-9.076c0.111-2.119-0.287-3.937-1.194-5.454
		c-0.907-1.516-2.376-2.275-4.407-2.275c-2.65,0-4.852,1.266-6.603,3.798c-1.751,2.532-2.714,5.447-2.887,8.744
		c-0.115,2.208,0.272,4.086,1.163,5.631C278.059,275.204,279.505,275.977,281.508,275.977z"/>
	<path fill="#FFFFFF" stroke="#FFFFFF" stroke-width="1.5" stroke-miterlimit="10" d="M293.071,281.188l13.435-16.208l-5.501-14.706
		h6.713l3.407,9.142l7.634-9.142h7.331l-12.679,15.236l5.936,15.678h-6.713l-3.842-10.114l-8.39,10.114H293.071z"/>
	<path fill="#FFFFFF" stroke="#FFFFFF" stroke-width="1.5" stroke-miterlimit="10" d="M342.732,256.015l-9.78,25.173h-6.006
		l9.78-25.173h-10.501l4.504-5.741h22.699l-3.426,5.741H342.732z"/>
	<path fill="#FFFFFF" stroke="#FFFFFF" stroke-width="1.5" stroke-miterlimit="10" d="M368.942,258.665
		c-0.154-1-0.605-1.818-1.351-2.451c-0.747-0.633-1.74-0.949-2.976-0.949c-1.355,0-2.429,0.295-3.226,0.883
		c-0.797,0.589-1.217,1.325-1.264,2.208c-0.042,0.795,0.37,1.494,1.237,2.097c0.866,0.604,1.926,1.171,3.179,1.701
		c1.253,0.53,2.508,1.141,3.768,1.833c1.259,0.692,2.303,1.707,3.131,3.047c0.828,1.34,1.193,2.952,1.094,4.836
		c-0.154,2.945-1.368,5.322-3.642,7.133c-2.274,1.81-5.206,2.715-8.799,2.715c-2.738,0-4.95-0.773-6.635-2.318
		c-1.686-1.546-2.801-3.599-3.344-6.161l5.627-2.031c0.418,1.561,1.048,2.745,1.889,3.555c0.841,0.81,2.041,1.215,3.602,1.215
		c1.413,0,2.578-0.316,3.495-0.95c0.916-0.633,1.403-1.494,1.46-2.583c0.052-1.001-0.345-1.861-1.189-2.583
		c-0.846-0.721-1.881-1.339-3.105-1.855c-1.225-0.515-2.453-1.104-3.684-1.767c-1.232-0.662-2.255-1.634-3.071-2.915
		c-0.815-1.28-1.176-2.833-1.08-4.659c0.136-2.59,1.218-4.725,3.25-6.404c2.031-1.678,4.695-2.518,7.993-2.518
		c2.885,0,5.078,0.7,6.58,2.098c1.501,1.399,2.363,3.084,2.584,5.057L368.942,258.665z"/>
</g>
<g>
	<path fill="#FFFFFF" d="M262.902,298.489l1.76-12.671h1.268l-1.76,12.671H262.902z"/>
	<path fill="#FFFFFF" d="M267.518,298.489l1.289-9.25h1.267l-0.144,1.014c0.657-0.821,1.499-1.231,2.525-1.231
		c0.808,0,1.441,0.238,1.899,0.715c0.458,0.477,0.705,1.191,0.74,2.145c0.019,0.519-0.005,1.013-0.072,1.484l-0.716,5.123h-1.268
		l0.772-5.576c0.047-0.337,0.066-0.651,0.056-0.941c-0.021-0.579-0.177-1.025-0.466-1.339c-0.289-0.313-0.688-0.471-1.194-0.471
		c-0.676,0-1.261,0.251-1.755,0.751c-0.495,0.501-0.794,1.156-0.896,1.964l-0.771,5.612H267.518z"/>
	<path fill="#FFFFFF" d="M280.632,298.706c-0.989,0-1.791-0.368-2.402-1.104c-0.613-0.736-0.939-1.659-0.98-2.77
		c-0.062-1.666,0.322-3.05,1.15-4.155c0.828-1.104,1.894-1.656,3.197-1.656c0.965,0,1.742,0.277,2.33,0.833
		c0.587,0.556,0.902,1.418,0.945,2.589c0.021,0.531-0.071,1.176-0.271,1.937h-6.064l0.009,0.254
		c0.034,0.917,0.235,1.629,0.604,2.136c0.369,0.506,0.897,0.76,1.585,0.76c0.712,0,1.415-0.242,2.109-0.724l0.596,0.923
		C282.594,298.381,281.658,298.706,280.632,298.706z M278.658,293.239h4.888c0.071-0.326,0.103-0.627,0.093-0.905
		c-0.029-0.784-0.233-1.342-0.614-1.674c-0.38-0.332-0.842-0.498-1.385-0.498c-0.833,0-1.498,0.296-1.995,0.887
		C279.147,291.64,278.818,292.37,278.658,293.239z"/>
	<path fill="#FFFFFF" d="M286.49,298.489l1.288-9.25h1.268l-0.188,1.303c0.38-0.506,0.797-0.886,1.252-1.14
		c0.455-0.253,0.894-0.38,1.316-0.38c0.471,0,0.838,0.126,1.101,0.38l-0.353,1.231c-0.359-0.229-0.731-0.344-1.117-0.344
		c-0.52,0-1.041,0.242-1.566,0.724c-0.525,0.483-0.86,1.231-1.004,2.245l-0.73,5.231H286.49z"/>
	<path fill="#FFFFFF" d="M295.783,298.706c-0.495,0-0.871-0.148-1.129-0.443c-0.258-0.295-0.396-0.69-0.415-1.186
		c-0.007-0.192,0.004-0.398,0.032-0.615l0.844-6.082h-1.521l0.157-1.141h1.521l0.458-3.276l1.338-0.543l-0.528,3.819h2.244
		l-0.157,1.141h-2.244l-0.787,5.666c-0.037,0.313-0.053,0.537-0.048,0.669c0.02,0.531,0.283,0.797,0.79,0.797
		c0.435,0,0.899-0.163,1.394-0.489l-0.331,1.322C296.925,298.586,296.387,298.706,295.783,298.706z"/>
	<path fill="#FFFFFF" d="M299.577,298.489l1.288-9.25h1.268l-1.289,9.25H299.577z M301.773,287.338
		c-0.205,0-0.376-0.066-0.514-0.199s-0.211-0.301-0.218-0.507c-0.011-0.278,0.077-0.513,0.264-0.706
		c0.186-0.193,0.399-0.29,0.641-0.29c0.218,0,0.395,0.066,0.532,0.199s0.21,0.302,0.218,0.506c0.011,0.278-0.077,0.514-0.264,0.706
		C302.246,287.241,302.026,287.338,301.773,287.338z"/>
	<path fill="#FFFFFF" d="M309.081,298.489l0.099-0.76c-0.772,0.652-1.647,0.978-2.625,0.978c-0.821,0-1.479-0.241-1.973-0.724
		c-0.495-0.482-0.757-1.128-0.787-1.937c-0.043-1.171,0.299-2.052,1.025-2.643s1.603-0.887,2.629-0.887
		c0.904,0,1.691,0.229,2.36,0.688l0.114-0.814c0.05-0.302,0.07-0.561,0.063-0.779c-0.037-0.989-0.556-1.484-1.558-1.484
		c-0.93,0-1.895,0.333-2.896,0.996l-0.203-1.086c1.121-0.676,2.171-1.014,3.148-1.014c0.699,0,1.316,0.193,1.85,0.579
		s0.815,1.008,0.848,1.865c0.009,0.242-0.011,0.531-0.059,0.869l-0.859,6.155H309.081z M306.732,297.602
		c0.494,0,0.984-0.133,1.47-0.398c0.484-0.265,0.884-0.585,1.195-0.959l0.24-1.829c-0.684-0.531-1.405-0.797-2.166-0.797
		c-0.735,0-1.344,0.193-1.824,0.579c-0.481,0.387-0.707,0.96-0.679,1.72c0.018,0.495,0.181,0.899,0.487,1.213
		C305.763,297.445,306.189,297.602,306.732,297.602z"/>
	<path fill="#FFFFFF" d="M313.299,298.489l1.747-12.527l1.337-0.543l-1.816,13.07H313.299z"/>
	<path fill="#FFFFFF" d="M323.533,292.913l-0.311,3.621h-1.304l0.312-3.621h-3.585l0.106-1.23h3.584l0.314-3.657h1.304l-0.314,3.657
		h3.62l-0.105,1.23H323.533z"/>
	<path fill="#FFFFFF" d="M334.486,298.706c-1.376,0-2.441-0.488-3.195-1.466c-0.754-0.977-1.156-2.154-1.207-3.53
		c-0.03-0.821,0.022-1.617,0.156-2.39c0.135-0.772,0.361-1.505,0.68-2.2c0.318-0.694,0.709-1.3,1.173-1.819
		c0.463-0.519,1.036-0.933,1.72-1.24c0.683-0.308,1.428-0.462,2.236-0.462c0.929,0,1.685,0.206,2.268,0.616
		c0.582,0.41,1.004,0.887,1.266,1.43l-1.101,0.597c-0.532-1.002-1.407-1.502-2.626-1.502c-0.989,0-1.843,0.355-2.559,1.067
		c-0.716,0.712-1.23,1.575-1.543,2.589c-0.313,1.013-0.448,2.063-0.408,3.149c0.041,1.135,0.33,2.088,0.865,2.86
		s1.298,1.159,2.287,1.159c0.881,0,1.61-0.284,2.187-0.851c0.576-0.567,0.932-1.333,1.064-2.299l0.1-0.76h-2.19l0.157-1.123h3.53
		l-0.23,1.593c-0.223,1.521-0.744,2.665-1.567,3.431C336.726,298.323,335.705,298.706,334.486,298.706z"/>
	<path fill="#FFFFFF" d="M341.81,298.489l1.76-12.671h1.177l4.433,9.757l0.335,0.742c0.058-0.398,0.092-0.64,0.101-0.724
		l1.359-9.775h1.267l-1.759,12.671h-1.285l-4.099-9.015l-0.591-1.304c-0.105,0.736-0.168,1.177-0.187,1.322l-1.243,8.997H341.81z"/>
	<path fill="#FFFFFF" d="M361.047,288.026c-0.466-0.857-1.224-1.285-2.273-1.285c-0.772,0-1.378,0.19-1.816,0.57
		s-0.646,0.872-0.625,1.476c0.019,0.482,0.215,0.896,0.589,1.24c0.375,0.344,0.823,0.634,1.345,0.869s1.044,0.495,1.567,0.778
		c0.523,0.284,0.976,0.685,1.356,1.204c0.382,0.52,0.586,1.147,0.613,1.883c0.046,1.255-0.323,2.227-1.105,2.915
		c-0.784,0.688-1.815,1.031-3.094,1.031c-0.941,0-1.75-0.241-2.425-0.724c-0.677-0.482-1.13-1.098-1.363-1.846l1.142-0.453
		c0.505,1.255,1.409,1.883,2.713,1.883c0.917,0,1.627-0.232,2.129-0.697c0.501-0.465,0.736-1.132,0.704-2.001
		c-0.021-0.555-0.217-1.034-0.587-1.439c-0.371-0.404-0.818-0.736-1.34-0.996c-0.523-0.259-1.046-0.525-1.568-0.796
		c-0.523-0.272-0.971-0.636-1.344-1.096c-0.373-0.458-0.571-1.007-0.595-1.647c-0.035-0.953,0.292-1.741,0.98-2.362
		c0.689-0.622,1.613-0.933,2.772-0.933c0.82,0,1.524,0.188,2.111,0.562s0.993,0.833,1.218,1.376L361.047,288.026z"/>
	<path fill="#FFFFFF" d="M371.384,288.026c-0.466-0.857-1.224-1.285-2.274-1.285c-0.772,0-1.378,0.19-1.816,0.57
		c-0.438,0.38-0.646,0.872-0.624,1.476c0.018,0.482,0.214,0.896,0.589,1.24c0.375,0.344,0.822,0.634,1.345,0.869
		c0.521,0.235,1.044,0.495,1.566,0.778c0.524,0.284,0.977,0.685,1.357,1.204c0.381,0.52,0.586,1.147,0.612,1.883
		c0.047,1.255-0.322,2.227-1.105,2.915c-0.783,0.688-1.814,1.031-3.094,1.031c-0.941,0-1.75-0.241-2.425-0.724
		c-0.676-0.482-1.13-1.098-1.362-1.846l1.142-0.453c0.505,1.255,1.409,1.883,2.712,1.883c0.917,0,1.627-0.232,2.129-0.697
		c0.501-0.465,0.736-1.132,0.705-2.001c-0.021-0.555-0.217-1.034-0.587-1.439c-0.372-0.404-0.818-0.736-1.341-0.996
		s-1.045-0.525-1.567-0.796c-0.523-0.272-0.972-0.636-1.344-1.096c-0.374-0.458-0.571-1.007-0.595-1.647
		c-0.035-0.953,0.291-1.741,0.98-2.362c0.688-0.622,1.613-0.933,2.771-0.933c0.82,0,1.524,0.188,2.111,0.562
		s0.993,0.833,1.219,1.376L371.384,288.026z"/>
</g>
<g id="Wheel_1_">
	<path fill="#FFFFFF" d="M254.838,263.368c-0.053,0.174-0.106,0.348-0.161,0.519c-0.017,0.052-0.043,0.094-0.077,0.123
		c-0.163,0.157-0.48,0.069-0.49-0.199c-0.086-2.789-0.52-8.503-2.569-11.617c-0.169-0.257,0.129-0.56,0.392-0.401
		c1.757,1.056,2.654,1.087,3.236,1.454c-0.668-4.471-2.609-7.809-6.018-10.426c-8.555-6.565-22.508-2.562-31.171,8.941
		c-8.66,11.508-8.746,26.156-0.194,32.72c5.999,4.605,14.651,4.012,22.273-0.72c-9.089,6.34-19.791,7.435-27.071,1.844
		c-9.802-7.525-9.706-24.316,0.222-37.505c9.928-13.19,25.921-17.779,35.723-10.254
		C255.914,243.211,257.876,253.266,254.838,263.368z"/>
	<g>
		<path fill="#FFFFFF" d="M256.601,281.287c-12.569,16.529-32.85,22.259-45.296,12.8c-5.428-4.125-8.438-10.126-9.101-17.324
			c-0.94,0.785-2.429,1.556-4.19,2.187c-0.273,0.098-0.49-0.251-0.283-0.462c2.523-2.568,4.07-7.947,4.708-10.595
			c0.005-0.017,0.01-0.031,0.017-0.045c0.107-0.258,0.535-0.213,0.522,0.087c-0.013,0.327-0.021,0.636-0.029,0.931
			c0.001,0.015,0.002,0.033,0,0.047c-0.007,0.144-0.011,0.288-0.009,0.433c-0.001,0.124-0.005,0.242-0.006,0.36
			c-0.019,7.397,2.675,14.028,8.087,18.142c10.861,8.253,28.553,3.255,39.521-11.165c10.965-14.421,11.048-32.798,0.19-41.051
			c-7.617-5.787-18.595-5.059-28.251,0.866c11.515-7.938,25.088-9.295,34.335-2.266C269.265,243.688,269.17,264.758,256.601,281.287
			z"/>
	</g>
</g>
</svg>
